<?xml version="1.0" standalone="no"?>
<!DOCTYPE svg PUBLIC "-//W3C//DTD SVG 20010904//EN"
 "http://www.w3.org/TR/2001/REC-SVG-20010904/DTD/svg10.dtd">
<svg version="1.0" xmlns="http://www.w3.org/2000/svg"
 width="500.000000pt" height="667.000000pt" viewBox="0 0 500.000000 667.000000"
 preserveAspectRatio="xMidYMid meet">

<g transform="translate(0.000000,667.000000) scale(0.100000,-0.100000)"
fill="#000000" stroke="none">
<path d="M0 3335 l0 -3335 2500 0 2500 0 0 3335 0 3335 -2500 0 -2500 0 0
-3335z m2885 1966 c72 -11 184 -31 250 -46 163 -36 425 -124 425 -142 0 -14
-47 -113 -54 -113 -2 0 -21 7 -42 16 -277 117 -627 184 -964 184 -323 0 -653
-60 -914 -165 -48 -19 -89 -35 -91 -35 -7 0 -55 98 -55 113 0 16 220 92 375
130 147 37 337 67 505 81 107 9 441 -4 565 -23z m-495 -311 c58 -71 107 -130
110 -130 3 0 52 58 110 130 l105 129 45 0 c146 2 542 -94 683 -166 l27 -14
-27 -35 c-45 -59 -211 -174 -251 -174 -5 0 -12 14 -16 31 -7 39 -52 81 -102
98 -22 7 -91 15 -155 18 -136 7 -119 24 -148 -147 -11 -63 -49 -281 -86 -485
-36 -203 -72 -406 -80 -450 -8 -44 -26 -145 -40 -225 -14 -80 -33 -189 -42
-242 -9 -54 -19 -98 -23 -98 -3 0 -16 60 -29 133 -12 72 -42 240 -66 372 -24
132 -75 420 -115 640 -39 220 -76 424 -81 454 l-11 54 -122 -6 c-143 -6 -204
-27 -236 -79 -11 -18 -20 -41 -20 -50 0 -26 -17 -22 -100 24 -66 36 -190 145
-190 166 0 10 171 74 288 107 122 36 324 71 417 73 l50 1 105 -129z m-680
-2399 c0 -25 -54 -51 -106 -51 l-54 0 0 -120 0 -120 -30 0 -30 0 0 120 0 120
-51 0 c-56 0 -83 11 -99 40 -10 20 -7 20 180 20 110 0 190 -4 190 -9z m490 -5
c0 -35 -41 -46 -166 -46 -108 0 -124 2 -148 21 -14 11 -26 25 -26 30 0 5 72 9
170 9 141 0 170 -2 170 -14z m500 -6 c-18 -33 -44 -40 -154 -40 l-106 0 0 -30
0 -30 135 0 135 0 0 -90 0 -90 -170 0 c-108 0 -170 4 -170 10 0 6 15 19 33 30
27 17 50 20 140 20 l107 0 0 30 0 30 -135 0 -135 0 0 90 0 90 165 0 c162 0
165 0 155 -20z m240 -100 l0 -120 130 0 c72 0 130 -3 130 -8 0 -4 -7 -18 -16
-30 -14 -21 -22 -22 -160 -22 l-144 0 0 150 0 150 30 0 30 0 0 -120z m730 111
c0 -5 -12 -19 -26 -30 -24 -19 -40 -21 -154 -21 -108 0 -129 3 -142 18 -37 42
-38 42 146 42 102 0 176 -4 176 -9z m-1470 -125 c0 -35 -40 -46 -169 -46 -114
0 -127 2 -148 22 -13 12 -23 25 -23 30 0 4 77 8 170 8 141 0 170 -2 170 -14z
m1460 -76 l0 -90 -30 0 -30 0 0 60 0 60 -105 0 -105 0 0 -60 0 -60 -30 0 -30
0 0 90 0 90 165 0 165 0 0 -90z m-1460 -42 c0 -6 -7 -20 -17 -30 -14 -16 -33
-18 -150 -18 -120 0 -135 2 -153 20 -11 11 -20 25 -20 30 0 6 63 10 170 10
123 0 170 -3 170 -12z"/>
</g>
</svg>
